<mxfile host="app.diagrams.net" modified="2022-06-20T09:18:24.397Z" agent="5.0 (Windows NT 10.0; Win64; x64) AppleWebKit/537.36 (KHTML, like Gecko) Chrome/102.0.0.0 Safari/537.36" etag="m94L7FFjjh2wC3iLB1ge" version="20.0.1" type="github">
  <diagram id="mMxJj-c8VBn48qBRDS8L" name="Page-1">
    <mxGraphModel dx="1422" dy="762" grid="0" gridSize="10" guides="1" tooltips="1" connect="1" arrows="1" fold="1" page="1" pageScale="1" pageWidth="827" pageHeight="1169" math="0" shadow="0">
      <root>
        <mxCell id="0" />
        <mxCell id="1" parent="0" />
        <mxCell id="z6KhFCeTX4yOgjB6BVxA-1" value="" style="shape=umlActor;verticalLabelPosition=bottom;verticalAlign=top;html=1;strokeColor=#FF0000;" parent="1" vertex="1">
          <mxGeometry x="163" y="190" width="30" height="60" as="geometry" />
        </mxCell>
        <mxCell id="z6KhFCeTX4yOgjB6BVxA-2" value="" style="html=1;points=[];perimeter=orthogonalPerimeter;strokeColor=#FF0000;shadow=0;" parent="1" vertex="1">
          <mxGeometry x="173" y="291" width="10" height="364" as="geometry" />
        </mxCell>
        <mxCell id="z6KhFCeTX4yOgjB6BVxA-3" value="" style="html=1;points=[];perimeter=orthogonalPerimeter;strokeColor=#FF0000;" parent="1" vertex="1">
          <mxGeometry x="294" y="318" width="10" height="339" as="geometry" />
        </mxCell>
        <mxCell id="z6KhFCeTX4yOgjB6BVxA-4" value="" style="html=1;points=[];perimeter=orthogonalPerimeter;strokeColor=#FF0000;" parent="1" vertex="1">
          <mxGeometry x="418.5" y="367" width="10" height="292" as="geometry" />
        </mxCell>
        <mxCell id="z6KhFCeTX4yOgjB6BVxA-6" value="逻辑服务" style="html=1;strokeColor=#FF0000;fillColor=#FFD966;" parent="1" vertex="1">
          <mxGeometry x="265" y="204" width="68" height="39" as="geometry" />
        </mxCell>
        <mxCell id="z6KhFCeTX4yOgjB6BVxA-7" value="redis" style="html=1;strokeColor=#FF0000;fillColor=#FFD966;" parent="1" vertex="1">
          <mxGeometry x="390" y="204" width="68" height="39" as="geometry" />
        </mxCell>
        <mxCell id="z6KhFCeTX4yOgjB6BVxA-16" value="" style="html=1;points=[];perimeter=orthogonalPerimeter;shadow=0;strokeColor=#FF0000;" parent="1" vertex="1">
          <mxGeometry x="426" y="418" width="10" height="27" as="geometry" />
        </mxCell>
        <mxCell id="z6KhFCeTX4yOgjB6BVxA-17" value="get value" style="edgeStyle=orthogonalEdgeStyle;html=1;align=left;spacingLeft=2;endArrow=block;rounded=0;entryX=1;entryY=0;elbow=vertical;strokeColor=#FF0000;" parent="1" target="z6KhFCeTX4yOgjB6BVxA-16" edge="1">
          <mxGeometry relative="1" as="geometry">
            <mxPoint x="431" y="398" as="sourcePoint" />
            <Array as="points">
              <mxPoint x="461" y="398" />
            </Array>
          </mxGeometry>
        </mxCell>
        <mxCell id="z6KhFCeTX4yOgjB6BVxA-18" value="alt" style="shape=umlFrame;whiteSpace=wrap;html=1;shadow=0;strokeColor=#000000;" parent="1" vertex="1">
          <mxGeometry x="392" y="470" width="207" height="153" as="geometry" />
        </mxCell>
        <mxCell id="6Fqfc0VOmwdHo4DhHVjG-14" value="get value" style="html=1;verticalAlign=bottom;endArrow=block;rounded=0;strokeColor=#FF0000;" edge="1" parent="1">
          <mxGeometry x="-0.068" y="9" width="80" relative="1" as="geometry">
            <mxPoint x="188" y="321" as="sourcePoint" />
            <mxPoint x="291" y="321" as="targetPoint" />
            <mxPoint as="offset" />
          </mxGeometry>
        </mxCell>
        <mxCell id="6Fqfc0VOmwdHo4DhHVjG-15" value="get value" style="html=1;verticalAlign=bottom;endArrow=block;rounded=0;strokeColor=#FF0000;" edge="1" parent="1">
          <mxGeometry x="-0.068" y="9" width="80" relative="1" as="geometry">
            <mxPoint x="309" y="369" as="sourcePoint" />
            <mxPoint x="412" y="369" as="targetPoint" />
            <mxPoint as="offset" />
          </mxGeometry>
        </mxCell>
        <mxCell id="6Fqfc0VOmwdHo4DhHVjG-16" value="" style="html=1;points=[];perimeter=orthogonalPerimeter;strokeColor=#FF0000;" vertex="1" parent="1">
          <mxGeometry x="545" y="526" width="10" height="29" as="geometry" />
        </mxCell>
        <mxCell id="6Fqfc0VOmwdHo4DhHVjG-17" value="get value" style="html=1;verticalAlign=bottom;endArrow=block;entryX=0;entryY=0;rounded=0;strokeColor=#FF0000;" edge="1" parent="1">
          <mxGeometry relative="1" as="geometry">
            <mxPoint x="433" y="525" as="sourcePoint" />
            <mxPoint x="543" y="525" as="targetPoint" />
          </mxGeometry>
        </mxCell>
        <mxCell id="6Fqfc0VOmwdHo4DhHVjG-18" value="return value" style="html=1;verticalAlign=bottom;endArrow=open;dashed=1;endSize=8;exitX=0;exitY=0.95;rounded=0;strokeColor=#FF0000;" edge="1" parent="1">
          <mxGeometry relative="1" as="geometry">
            <mxPoint x="433" y="552" as="targetPoint" />
            <mxPoint x="543" y="553.3499999999999" as="sourcePoint" />
          </mxGeometry>
        </mxCell>
        <mxCell id="6Fqfc0VOmwdHo4DhHVjG-19" value="" style="html=1;points=[];perimeter=orthogonalPerimeter;strokeColor=#FF0000;" vertex="1" parent="1">
          <mxGeometry x="421" y="590" width="10" height="24" as="geometry" />
        </mxCell>
        <mxCell id="6Fqfc0VOmwdHo4DhHVjG-20" value="set value" style="edgeStyle=orthogonalEdgeStyle;html=1;align=left;spacingLeft=2;endArrow=block;rounded=0;entryX=1;entryY=0;strokeColor=#FF0000;" edge="1" target="6Fqfc0VOmwdHo4DhHVjG-19" parent="1">
          <mxGeometry relative="1" as="geometry">
            <mxPoint x="426" y="570" as="sourcePoint" />
            <Array as="points">
              <mxPoint x="456" y="570" />
            </Array>
          </mxGeometry>
        </mxCell>
        <mxCell id="6Fqfc0VOmwdHo4DhHVjG-21" value="return value" style="html=1;verticalAlign=bottom;endArrow=open;dashed=1;endSize=8;rounded=0;strokeColor=#FF0000;" edge="1" parent="1">
          <mxGeometry relative="1" as="geometry">
            <mxPoint x="417" y="657" as="sourcePoint" />
            <mxPoint x="312" y="655" as="targetPoint" />
          </mxGeometry>
        </mxCell>
        <mxCell id="6Fqfc0VOmwdHo4DhHVjG-22" value="value is null" style="text;align=center;fontStyle=0;verticalAlign=middle;spacingLeft=3;spacingRight=3;strokeColor=none;rotatable=0;points=[[0,0.5],[1,0.5]];portConstraint=eastwest;" vertex="1" parent="1">
          <mxGeometry x="473" y="471" width="80" height="26" as="geometry" />
        </mxCell>
        <mxCell id="6Fqfc0VOmwdHo4DhHVjG-29" value="mysql" style="html=1;strokeColor=#FF0000;fillColor=#FFD966;" vertex="1" parent="1">
          <mxGeometry x="514" y="204" width="68" height="39" as="geometry" />
        </mxCell>
        <mxCell id="6Fqfc0VOmwdHo4DhHVjG-32" value="" style="shape=partialRectangle;fillColor=none;align=left;verticalAlign=middle;strokeColor=none;spacingLeft=34;rotatable=0;points=[[0,0.5],[1,0.5]];portConstraint=eastwest;dropTarget=0;" vertex="1" parent="1">
          <mxGeometry x="548.5" y="243" width="3" height="281" as="geometry" />
        </mxCell>
        <mxCell id="6Fqfc0VOmwdHo4DhHVjG-33" value="" style="shape=partialRectangle;top=0;left=0;bottom=0;fillColor=none;stokeWidth=1;dashed=1;align=left;verticalAlign=middle;spacingLeft=4;spacingRight=4;overflow=hidden;rotatable=0;points=[];portConstraint=eastwest;part=1;strokeColor=#FF0000;" vertex="1" connectable="0" parent="6Fqfc0VOmwdHo4DhHVjG-32">
          <mxGeometry width="1" height="281" as="geometry" />
        </mxCell>
        <mxCell id="6Fqfc0VOmwdHo4DhHVjG-34" value="" style="shape=partialRectangle;fillColor=none;align=left;verticalAlign=middle;strokeColor=none;spacingLeft=34;rotatable=0;points=[[0,0.5],[1,0.5]];portConstraint=eastwest;dropTarget=0;" vertex="1" parent="1">
          <mxGeometry x="548.5" y="555" width="3" height="108" as="geometry" />
        </mxCell>
        <mxCell id="6Fqfc0VOmwdHo4DhHVjG-35" value="" style="shape=partialRectangle;top=0;left=0;bottom=0;fillColor=none;stokeWidth=1;dashed=1;align=left;verticalAlign=middle;spacingLeft=4;spacingRight=4;overflow=hidden;rotatable=0;points=[];portConstraint=eastwest;part=1;strokeColor=#FF0000;" vertex="1" connectable="0" parent="6Fqfc0VOmwdHo4DhHVjG-34">
          <mxGeometry width="1" height="108" as="geometry" />
        </mxCell>
        <mxCell id="6Fqfc0VOmwdHo4DhHVjG-36" value="" style="shape=partialRectangle;fillColor=none;align=left;verticalAlign=middle;strokeColor=none;spacingLeft=34;rotatable=0;points=[[0,0.5],[1,0.5]];portConstraint=eastwest;dropTarget=0;" vertex="1" parent="1">
          <mxGeometry x="422.5" y="243" width="3" height="123" as="geometry" />
        </mxCell>
        <mxCell id="6Fqfc0VOmwdHo4DhHVjG-37" value="" style="shape=partialRectangle;top=0;left=0;bottom=0;fillColor=none;stokeWidth=1;dashed=1;align=left;verticalAlign=middle;spacingLeft=4;spacingRight=4;overflow=hidden;rotatable=0;points=[];portConstraint=eastwest;part=1;strokeColor=#FF0000;" vertex="1" connectable="0" parent="6Fqfc0VOmwdHo4DhHVjG-36">
          <mxGeometry width="1" height="123.00000000000001" as="geometry" />
        </mxCell>
        <mxCell id="6Fqfc0VOmwdHo4DhHVjG-38" value="" style="shape=partialRectangle;fillColor=none;align=left;verticalAlign=middle;strokeColor=none;spacingLeft=34;rotatable=0;points=[[0,0.5],[1,0.5]];portConstraint=eastwest;dropTarget=0;" vertex="1" parent="1">
          <mxGeometry x="297.5" y="243" width="3" height="76" as="geometry" />
        </mxCell>
        <mxCell id="6Fqfc0VOmwdHo4DhHVjG-39" value="" style="shape=partialRectangle;top=0;left=0;bottom=0;fillColor=none;stokeWidth=1;dashed=1;align=left;verticalAlign=middle;spacingLeft=4;spacingRight=4;overflow=hidden;rotatable=0;points=[];portConstraint=eastwest;part=1;strokeColor=#FF0000;" vertex="1" connectable="0" parent="6Fqfc0VOmwdHo4DhHVjG-38">
          <mxGeometry width="1" height="76.00000000000001" as="geometry" />
        </mxCell>
        <mxCell id="6Fqfc0VOmwdHo4DhHVjG-42" value="return value" style="html=1;verticalAlign=bottom;endArrow=open;dashed=1;endSize=8;rounded=0;strokeColor=#FF0000;" edge="1" parent="1">
          <mxGeometry relative="1" as="geometry">
            <mxPoint x="291" y="657" as="sourcePoint" />
            <mxPoint x="186" y="655" as="targetPoint" />
          </mxGeometry>
        </mxCell>
        <mxCell id="6Fqfc0VOmwdHo4DhHVjG-43" value="读数据" style="text;align=center;fontStyle=1;verticalAlign=middle;spacingLeft=3;spacingRight=3;strokeColor=#B5739D;rotatable=0;points=[[0,0.5],[1,0.5]];portConstraint=eastwest;fillColor=#97D077;fontSize=15;" vertex="1" parent="1">
          <mxGeometry x="161.5" y="108" width="446.5" height="45" as="geometry" />
        </mxCell>
      </root>
    </mxGraphModel>
  </diagram>
</mxfile>
